<?xml version="1.0" encoding="utf-8"?><svg xmlns="http://www.w3.org/2000/svg" xmlns:xlink="http://www.w3.org/1999/xlink"><symbol fill="none" stroke="currentColor" stroke-width="2" stroke-linecap="round" stroke-linejoin="round" class="aaicon aaicon-tabler aaicons-tabler-outline aaicon-tabler-alert-triangle" viewBox="0 0 24 24" id="alert-triangle" xmlns="http://www.w3.org/2000/svg"><path d="M0 0h24v24H0z" stroke="none"/><path d="M12 9v4M10.363 3.591 2.257 17.125a1.914 1.914 0 0 0 1.636 2.871h16.214a1.914 1.914 0 0 0 1.636-2.87L13.637 3.59a1.914 1.914 0 0 0-3.274 0M12 16h.01"/></symbol><symbol fill="currentColor" class="abicon abicon-tabler abicons-tabler-filled abicon-tabler-caret-down" viewBox="0 0 24 24" id="caret-down" xmlns="http://www.w3.org/2000/svg"><path d="M0 0h24v24H0z" fill="none"/><path d="M18 9c.852 0 1.297.986.783 1.623l-.076.084-6 6a1 1 0 0 1-1.32.083l-.094-.083-6-6-.083-.094-.054-.077-.054-.096-.017-.036-.027-.067-.032-.108-.01-.053-.01-.06-.004-.057v-.118l.005-.058.009-.06.01-.052.032-.108.027-.067.07-.132.065-.09.073-.081.094-.083.077-.054.096-.054.036-.017.067-.027.108-.032.053-.01.06-.01.057-.004L18 9z"/></symbol><symbol fill="currentColor" class="acicon acicon-tabler acicons-tabler-filled acicon-tabler-caret-up" viewBox="0 0 24 24" id="caret-up" xmlns="http://www.w3.org/2000/svg"><path d="M0 0h24v24H0z" fill="none"/><path d="M11.293 7.293a1 1 0 0 1 1.32-.083l.094.083 6 6 .083.094.054.077.054.096.017.036.027.067.032.108.01.053.01.06.004.057L19 14l-.002.059-.005.058-.009.06-.01.052-.032.108-.027.067-.07.132-.065.09-.073.081-.094.083-.077.054-.096.054-.036.017-.067.027-.108.032-.053.01-.06.01-.057.004L18 15H6c-.852 0-1.297-.986-.783-1.623l.076-.084 6-6z"/></symbol><symbol fill="none" stroke="currentColor" stroke-width="2" stroke-linecap="round" stroke-linejoin="round" class="adicon adicon-tabler adicons-tabler-outline adicon-tabler-check" viewBox="0 0 24 24" id="check" xmlns="http://www.w3.org/2000/svg"><path d="M0 0h24v24H0z" stroke="none"/><path d="m5 12 5 5L20 7"/></symbol><symbol fill="none" stroke="currentColor" stroke-width="2" stroke-linecap="round" stroke-linejoin="round" class="aeicon aeicon-tabler aeicons-tabler-outline aeicon-tabler-chevron-down" viewBox="0 0 24 24" id="chevron-down" xmlns="http://www.w3.org/2000/svg"><path d="M0 0h24v24H0z" stroke="none"/><path d="m6 9 6 6 6-6"/></symbol><symbol fill="currentColor" class="aficon aficon-tabler aficons-tabler-filled aficon-tabler-chevron-right" viewBox="0 0 24 24" id="chevron-right" xmlns="http://www.w3.org/2000/svg"><path d="M0 0h24v24H0z" fill="none"/><path d="m9.707 5.293 6 6a1 1 0 0 1 0 1.414l-6 6a1 1 0 1 1-1.414-1.414L13.586 12 8.293 6.707a1 1 0 0 1 1.414-1.414"/></symbol><symbol fill="none" stroke="currentColor" stroke-width="2" stroke-linecap="round" stroke-linejoin="round" class="agicon agicon-tabler agicons-tabler-outline agicon-tabler-filter" viewBox="0 0 24 24" id="filter" xmlns="http://www.w3.org/2000/svg"><path d="M0 0h24v24H0z" stroke="none"/><path d="M4 4h16v2.172a2 2 0 0 1-.586 1.414L15 12v7l-6 2v-8.5L4.52 7.572A2 2 0 0 1 4 6.227V4"/></symbol><symbol fill="none" stroke="currentColor" stroke-width="2" stroke-linecap="round" stroke-linejoin="round" class="ahicon ahicon-tabler ahicons-tabler-outline ahicon-tabler-heart" viewBox="0 0 24 24" id="heart" xmlns="http://www.w3.org/2000/svg"><path d="M0 0h24v24H0z" stroke="none"/><path d="M19.5 12.572 12 20l-7.5-7.428A5 5 0 1 1 12 6.006a5 5 0 1 1 7.5 6.572"/></symbol><symbol fill="none" stroke="currentColor" stroke-width="2" stroke-linecap="round" stroke-linejoin="round" class="aiicon aiicon-tabler aiicons-tabler-outline aiicon-tabler-home" viewBox="0 0 24 24" id="home" xmlns="http://www.w3.org/2000/svg"><path d="M0 0h24v24H0z" stroke="none"/><path d="M5 12H3l9-9 9 9h-2M5 12v7a2 2 0 0 0 2 2h10a2 2 0 0 0 2-2v-7"/><path d="M9 21v-6a2 2 0 0 1 2-2h2a2 2 0 0 1 2 2v6"/></symbol><symbol fill="none" stroke="currentColor" stroke-width="2" stroke-linecap="round" stroke-linejoin="round" class="ajicon ajicon-tabler ajicons-tabler-outline ajicon-tabler-location" viewBox="0 0 24 24" id="location" xmlns="http://www.w3.org/2000/svg"><path d="M0 0h24v24H0z" stroke="none"/><path d="m21 3-6.5 18a.55.55 0 0 1-1 0L10 14l-7-3.5a.55.55 0 0 1 0-1L21 3"/></symbol><symbol fill="none" stroke="currentColor" stroke-width="2" stroke-linecap="round" stroke-linejoin="round" class="akicon akicon-tabler akicons-tabler-outline akicon-tabler-lock" viewBox="0 0 24 24" id="lock" xmlns="http://www.w3.org/2000/svg"><path d="M0 0h24v24H0z" stroke="none"/><path d="M5 13a2 2 0 0 1 2-2h10a2 2 0 0 1 2 2v6a2 2 0 0 1-2 2H7a2 2 0 0 1-2-2v-6"/><path d="M11 16a1 1 0 1 0 2 0 1 1 0 0 0-2 0M8 11V7a4 4 0 1 1 8 0v4"/></symbol><symbol fill="none" stroke="currentColor" stroke-width="2" stroke-linecap="round" stroke-linejoin="round" class="alicon alicon-tabler alicons-tabler-outline alicon-tabler-mail" viewBox="0 0 24 24" id="mail" xmlns="http://www.w3.org/2000/svg"><path d="M0 0h24v24H0z" stroke="none"/><path d="M3 7a2 2 0 0 1 2-2h14a2 2 0 0 1 2 2v10a2 2 0 0 1-2 2H5a2 2 0 0 1-2-2V7"/><path d="m3 7 9 6 9-6"/></symbol><symbol fill="none" stroke="currentColor" stroke-width="2" stroke-linecap="round" stroke-linejoin="round" class="amicon amicon-tabler amicons-tabler-outline amicon-tabler-map-pin" viewBox="0 0 24 24" id="map-pin" xmlns="http://www.w3.org/2000/svg"><path d="M0 0h24v24H0z" stroke="none"/><path d="M9 11a3 3 0 1 0 6 0 3 3 0 0 0-6 0"/><path d="M17.657 16.657 13.414 20.9a2 2 0 0 1-2.827 0l-4.244-4.243a8 8 0 1 1 11.314 0"/></symbol><symbol fill="none" stroke="currentColor" stroke-width="2" stroke-linecap="round" stroke-linejoin="round" class="anicon anicon-tabler anicons-tabler-outline anicon-tabler-menu-2" viewBox="0 0 24 24" id="menu-2" xmlns="http://www.w3.org/2000/svg"><path d="M0 0h24v24H0z" stroke="none"/><path d="M4 6h16M4 12h16M4 18h16"/></symbol><symbol fill="none" stroke="currentColor" stroke-width="2" stroke-linecap="round" stroke-linejoin="round" class="aoicon aoicon-tabler aoicons-tabler-outline aoicon-tabler-message" viewBox="0 0 24 24" id="message" xmlns="http://www.w3.org/2000/svg"><path d="M0 0h24v24H0z" stroke="none"/><path d="M8 9h8M8 13h6M18 4a3 3 0 0 1 3 3v8a3 3 0 0 1-3 3h-5l-5 3v-3H6a3 3 0 0 1-3-3V7a3 3 0 0 1 3-3h12"/></symbol><symbol fill="none" stroke="currentColor" stroke-width="2" stroke-linecap="round" stroke-linejoin="round" class="apicon apicon-tabler apicons-tabler-outline apicon-tabler-moon" viewBox="0 0 24 24" id="moon" xmlns="http://www.w3.org/2000/svg"><path d="M0 0h24v24H0z" stroke="none"/><path d="M12 3h.393a7.5 7.5 0 0 0 7.92 12.446A9 9 0 1 1 12 2.992V3"/></symbol><symbol fill="none" stroke="currentColor" stroke-width="2" stroke-linecap="round" stroke-linejoin="round" class="aqicon aqicon-tabler aqicons-tabler-outline aqicon-tabler-pencil" viewBox="0 0 24 24" id="pencil" xmlns="http://www.w3.org/2000/svg"><path d="M0 0h24v24H0z" stroke="none"/><path d="M4 20h4L18.5 9.5a2.828 2.828 0 1 0-4-4L4 16v4M13.5 6.5l4 4"/></symbol><symbol fill="none" stroke="currentColor" stroke-width="2" stroke-linecap="round" stroke-linejoin="round" class="aricon aricon-tabler aricons-tabler-outline aricon-tabler-phone" viewBox="0 0 24 24" id="phone" xmlns="http://www.w3.org/2000/svg"><path d="M0 0h24v24H0z" stroke="none"/><path d="M5 4h4l2 5-2.5 1.5a11 11 0 0 0 5 5L15 13l5 2v4a2 2 0 0 1-2 2A16 16 0 0 1 3 6a2 2 0 0 1 2-2"/></symbol><symbol fill="none" stroke="currentColor" stroke-width="2" stroke-linecap="round" stroke-linejoin="round" class="asicon asicon-tabler asicons-tabler-outline asicon-tabler-refresh" viewBox="0 0 24 24" id="refresh" xmlns="http://www.w3.org/2000/svg"><path d="M0 0h24v24H0z" stroke="none"/><path d="M20 11A8.1 8.1 0 0 0 4.5 9M4 5v4h4M4 13a8.1 8.1 0 0 0 15.5 2m.5 4v-4h-4"/></symbol><symbol fill="none" stroke="currentColor" stroke-width="2" stroke-linecap="round" stroke-linejoin="round" class="aticon aticon-tabler aticons-tabler-outline aticon-tabler-search" viewBox="0 0 24 24" id="search" xmlns="http://www.w3.org/2000/svg"><path d="M0 0h24v24H0z" stroke="none"/><path d="M3 10a7 7 0 1 0 14 0 7 7 0 1 0-14 0M21 21l-6-6"/></symbol><symbol fill="none" stroke="currentColor" stroke-width="2" stroke-linecap="round" stroke-linejoin="round" class="auicon auicon-tabler auicons-tabler-outline auicon-tabler-share" viewBox="0 0 24 24" id="share" xmlns="http://www.w3.org/2000/svg"><path d="M0 0h24v24H0z" stroke="none"/><path d="M3 12a3 3 0 1 0 6 0 3 3 0 1 0-6 0M15 6a3 3 0 1 0 6 0 3 3 0 1 0-6 0M15 18a3 3 0 1 0 6 0 3 3 0 1 0-6 0M8.7 10.7l6.6-3.4M8.7 13.3l6.6 3.4"/></symbol><symbol fill="none" stroke="currentColor" stroke-width="2" stroke-linecap="round" stroke-linejoin="round" class="avicon avicon-tabler avicons-tabler-outline avicon-tabler-shopping-cart" viewBox="0 0 24 24" id="shopping-cart" xmlns="http://www.w3.org/2000/svg"><path d="M0 0h24v24H0z" stroke="none"/><path d="M4 19a2 2 0 1 0 4 0 2 2 0 1 0-4 0M15 19a2 2 0 1 0 4 0 2 2 0 1 0-4 0"/><path d="M17 17H6V3H4"/><path d="m6 5 14 1-1 7H6"/></symbol><symbol fill="none" stroke="currentColor" stroke-width="2" stroke-linecap="round" stroke-linejoin="round" class="awicon awicon-tabler awicons-tabler-outline awicon-tabler-star" viewBox="0 0 24 24" id="star-empty" xmlns="http://www.w3.org/2000/svg"><path d="M0 0h24v24H0z" stroke="none"/><path d="m12 17.75-6.172 3.245 1.179-6.873-5-4.867 6.9-1 3.086-6.253 3.086 6.253 6.9 1-5 4.867 1.179 6.873L12 17.75"/></symbol><symbol fill="currentColor" class="axicon axicon-tabler axicons-tabler-filled axicon-tabler-star" viewBox="0 0 24 24" id="star-full" xmlns="http://www.w3.org/2000/svg"><path d="M0 0h24v24H0z" fill="none"/><path d="m8.243 7.34-6.38.925-.113.023a1 1 0 0 0-.44 1.684l4.622 4.499-1.09 6.355-.013.11a1 1 0 0 0 1.464.944l5.706-3 5.693 3 .1.046a1 1 0 0 0 1.352-1.1l-1.091-6.355 4.624-4.5.078-.085a1 1 0 0 0-.633-1.62l-6.38-.926-2.852-5.78a1 1 0 0 0-1.794 0L8.243 7.34z"/></symbol><symbol fill="currentColor" class="ayicon ayicon-tabler ayicons-tabler-filled ayicon-tabler-star-half" viewBox="0 0 24 24" id="star-half" xmlns="http://www.w3.org/2000/svg"><path d="M0 0h24v24H0z" fill="none"/><path d="M12 1a.993.993 0 0 1 .823.443l.067.116 2.852 5.781 6.38.925c.741.108 1.08.94.703 1.526l-.07.095-.078.086-4.624 4.499 1.09 6.355a1.001 1.001 0 0 1-1.249 1.135l-.101-.035-.101-.046-5.693-3-5.706 3c-.105.055-.212.09-.32.106l-.106.01a1.003 1.003 0 0 1-1.038-1.06l.013-.11 1.09-6.355-4.623-4.5a1.001 1.001 0 0 1 .328-1.647l.113-.036.114-.023 6.379-.925 2.853-5.78A.968.968 0 0 1 12 1zm0 3.274V16.75a1 1 0 0 1 .239.029l.115.036.112.05 4.363 2.299-.836-4.873a1 1 0 0 1 .136-.696l.07-.099.082-.09 3.546-3.453-4.891-.708a1 1 0 0 1-.62-.344l-.073-.097-.06-.106L12 4.274z"/></symbol><symbol fill="none" stroke="currentColor" stroke-width="2" stroke-linecap="round" stroke-linejoin="round" class="azicon azicon-tabler azicons-tabler-outline azicon-tabler-sun" viewBox="0 0 24 24" id="sun" xmlns="http://www.w3.org/2000/svg"><path d="M0 0h24v24H0z" stroke="none"/><path d="M8 12a4 4 0 1 0 8 0 4 4 0 1 0-8 0M3 12h1m8-9v1m8 8h1m-9 8v1M5.6 5.6l.7.7m12.1-.7-.7.7m0 11.4.7.7m-12.1-.7-.7.7"/></symbol><symbol fill="none" stroke="currentColor" stroke-width="2" stroke-linecap="round" stroke-linejoin="round" class="baicon baicon-tabler baicons-tabler-outline baicon-tabler-trash" viewBox="0 0 24 24" id="trash" xmlns="http://www.w3.org/2000/svg"><path d="M0 0h24v24H0z" stroke="none"/><path d="M4 7h16M10 11v6M14 11v6M5 7l1 12a2 2 0 0 0 2 2h8a2 2 0 0 0 2-2l1-12M9 7V4a1 1 0 0 1 1-1h4a1 1 0 0 1 1 1v3"/></symbol><symbol fill="none" stroke="currentColor" stroke-width="2" stroke-linecap="round" stroke-linejoin="round" class="bbicon bbicon-tabler bbicons-tabler-outline bbicon-tabler-user" viewBox="0 0 24 24" id="user" xmlns="http://www.w3.org/2000/svg"><path d="M0 0h24v24H0z" stroke="none"/><path d="M8 7a4 4 0 1 0 8 0 4 4 0 0 0-8 0M6 21v-2a4 4 0 0 1 4-4h4a4 4 0 0 1 4 4v2"/></symbol><symbol fill="none" stroke="currentColor" stroke-width="2" stroke-linecap="round" stroke-linejoin="round" class="bcicon bcicon-tabler bcicons-tabler-outline bcicon-tabler-world" viewBox="0 0 24 24" id="world" xmlns="http://www.w3.org/2000/svg"><path d="M0 0h24v24H0z" stroke="none"/><path d="M3 12a9 9 0 1 0 18 0 9 9 0 0 0-18 0M3.6 9h16.8M3.6 15h16.8"/><path d="M11.5 3a17 17 0 0 0 0 18M12.5 3a17 17 0 0 1 0 18"/></symbol><symbol fill="none" stroke="currentColor" stroke-width="2" stroke-linecap="round" stroke-linejoin="round" class="bdicon bdicon-tabler bdicons-tabler-outline bdicon-tabler-x" viewBox="0 0 24 24" id="x" xmlns="http://www.w3.org/2000/svg"><path d="M0 0h24v24H0z" stroke="none"/><path d="M18 6 6 18M6 6l12 12"/></symbol></svg>